<svg width="120" height="120" viewBox="0 0 120 120" fill="none" xmlns="http://www.w3.org/2000/svg">
<mask id="mask0_5284_7364" style="mask-type:luminance" maskUnits="userSpaceOnUse" x="0" y="0" width="120" height="120">
<path fill-rule="evenodd" clip-rule="evenodd" d="M0 0H120V120H0V0Z" fill="white"/>
</mask>
<g mask="url(#mask0_5284_7364)">
<path fill-rule="evenodd" clip-rule="evenodd" d="M120 60C120 93.1369 93.1369 120 60 120C26.8628 120 0 93.1369 0 60C0 26.8628 26.8628 0 60 0C93.1369 0 120 26.8628 120 60Z" fill="#1472FF"/>
<path fill-rule="evenodd" clip-rule="evenodd" d="M94.4999 34.5001H92.9999C91.3431 34.5001 89.9999 33.1568 89.9999 31.5001V30.3751H89.9864C89.794 27.6503 87.5234 25.5001 84.7499 25.5001C81.9764 25.5001 79.7057 27.6503 79.5134 30.3751H79.4999V54.7501C79.4999 60.1347 75.1345 64.5001 69.7499 64.5001H35.6999C32.6489 64.5001 29.9253 63.0987 28.1373 60.9042C28.1365 60.9027 28.1354 60.9012 28.1339 60.8997C28.1028 60.8618 28.0716 60.8228 28.0409 60.7838L28.036 60.7778C27.6231 60.3019 27.0138 60.0004 26.3343 60.0004C25.1736 60.0004 24.2181 60.8791 24.097 62.0078C24.0936 62.0539 24.0899 62.1004 24.0869 62.1466C24.0291 62.9236 23.9999 63.7084 23.9999 64.5001C23.9999 81.8971 38.1029 96.0001 55.4999 96.0001C72.8969 96.0001 86.9999 81.8971 86.9999 64.5001V44.2501C86.9999 42.1789 88.6788 40.5001 90.7499 40.5001H94.4999C95.3283 40.5001 96.0783 40.1641 96.6213 39.6214C97.1643 39.0788 97.4999 38.3284 97.4999 37.5001C97.4999 35.8429 96.1566 34.5001 94.4999 34.5001Z" fill="white"/>
</g>
</svg>
